<svg xmlns="http://www.w3.org/2000/svg" width="42" height="43" viewBox="0 0 42 43">
    <g fill="none" transform="translate(0 .923)">
        <circle cx="21" cy="21" r="21" fill="#FFF"/>
        <circle cx="21" cy="21" r="17.5" fill="#FF5630"/>
        <g>
            <path fill="#FFF" d="M18.686 10.223c2.33-2.335 2.328-6.116-.005-8.448-2.236-2.236-5.801-2.33-8.15-.284-.17.148-.427.148-.598 0C7.585-.555 4.02-.461 1.784 1.775-.548 4.107-.55 7.888 1.78 10.223l8.163 8.164c.16.16.42.16.58 0l8.164-8.164z" transform="translate(10.899 12.25)"/>
            <path fill="#F6F6F6" d="M18.686 10.223l-8.163 8.164c-.16.16-.42.16-.58 0l-1.021-1.021 7.798-7.798c2.328-2.335 2.327-6.116-.006-8.448C16.295.7 15.83.357 15.334.089c1.225.181 2.405.743 3.347 1.685 2.332 2.334 2.334 6.114.005 8.449z" transform="translate(10.899 12.25)"/>
        </g>
        <g>
            <path fill="#FF2F5F" d="M35 17.5C35 27.165 27.165 35 17.5 35S0 27.165 0 17.5 7.835 0 17.5 0 35 7.835 35 17.5z" transform="translate(3.5 3.5)"/>
            <path fill="#FFF" d="M10.198 12.09c1.41-1.803 5.269-.708 5.269-.708s-3.86 2.127-2.573 5.606c1.286 3.48 5.33 4.77 5.33 4.77s4.227-2.707 3.86-5.543c-.368-2.835-4.167-.58-4.167-.58s-.551-1.03-2.45-.838c-1.23.126-1.586 1.008-1.685 1.614-.043.356-.03.577-.03.577s-.023-.248.03-.577c.15-1.243.968-4.128 5.3-5.029 5.574-1.16 8.454 2.9 5.574 7.862-2.88 4.962-6.432 6.315-6.432 6.315s-2.635-.644-6.188-4.575-3.247-7.089-1.838-8.893z" transform="translate(3.5 3.5)"/>
        </g>
    </g>
</svg>
